<svg width="1046" height="114" viewBox="0 0 1046 114" fill="none" xmlns="http://www.w3.org/2000/svg">
<path d="M4.9 111.95C1.89667 111.95 0.395001 110.448 0.395001 107.445V6.88958C0.395001 3.88625 1.89667 2.38458 4.9 2.38458C7.84667 2.38458 9.32 3.88625 9.32 6.88958V55.7646L59.81 3.99958C61.85 1.90291 63.9183 1.87458 66.015 3.91458C68.225 5.95458 68.2817 8.07958 66.185 10.2896L28.105 49.3046L72.9 104.895C74.77 107.218 74.5717 109.315 72.305 111.185C69.9817 113.055 67.9133 112.856 66.1 110.59L21.9 55.7646L9.32 68.5996V107.445C9.32 110.448 7.84667 111.95 4.9 111.95ZM98.5328 111.95C95.5295 111.95 94.0278 110.448 94.0278 107.445V6.88958C94.0278 3.88625 95.5295 2.38458 98.5328 2.38458C100.119 2.38458 101.649 3.26292 103.123 5.01958L175.118 97.4996H173.078V6.88958C173.078 3.88625 174.579 2.38458 177.583 2.38458C180.529 2.38458 182.003 3.88625 182.003 6.88958V107.445C182.003 110.448 180.529 111.95 177.583 111.95C175.939 111.95 174.409 111.071 172.993 109.315L100.913 16.8346H102.953V107.445C102.953 110.448 101.479 111.95 98.5328 111.95ZM246.875 111.95C234.578 111.95 225.597 109.116 219.93 103.45C214.263 97.7829 211.43 88.8013 211.43 76.5046V37.7446C211.43 25.3346 214.263 16.3246 219.93 10.7146C225.597 5.04791 234.522 2.27125 246.705 2.38458H267.275C279.572 2.38458 288.525 5.21792 294.135 10.8846C299.802 16.5512 302.635 25.5329 302.635 37.8296V76.5046C302.635 88.8013 299.802 97.7829 294.135 103.45C288.525 109.116 279.572 111.95 267.275 111.95H246.875ZM246.875 103.025H267.275C273.792 103.025 278.977 102.175 282.83 100.475C286.683 98.7746 289.46 95.9979 291.16 92.1446C292.86 88.2912 293.71 83.0779 293.71 76.5046V37.8296C293.71 31.3129 292.86 26.1279 291.16 22.2746C289.46 18.4212 286.683 15.6446 282.83 13.9446C278.977 12.1879 273.792 11.3096 267.275 11.3096H246.705C240.188 11.2529 235.003 12.0746 231.15 13.7746C227.353 15.4179 224.605 18.1946 222.905 22.1046C221.205 25.9579 220.355 31.1712 220.355 37.7446V76.5046C220.355 83.0779 221.205 88.2912 222.905 92.1446C224.605 95.9979 227.382 98.7746 231.235 100.475C235.088 102.175 240.302 103.025 246.875 103.025ZM365.244 111.95C352.948 111.95 343.966 109.116 338.299 103.45C332.633 97.7829 329.799 88.8013 329.799 76.5046V37.8296C329.799 25.4196 332.604 16.4096 338.214 10.7996C343.881 5.18958 352.834 2.38458 365.074 2.38458H385.644C396.071 2.38458 403.834 4.56625 408.934 8.92958C414.034 13.2362 416.839 20.1779 417.349 29.7546C417.519 31.2846 417.208 32.4462 416.414 33.2396C415.678 34.0329 414.573 34.4296 413.099 34.4296C410.266 34.4296 408.708 32.9279 408.424 29.9246C408.028 22.8979 406.101 18.0529 402.644 15.3896C399.188 12.6696 393.521 11.3096 385.644 11.3096H365.074C358.558 11.3096 353.373 12.1596 349.519 13.8596C345.666 15.5029 342.889 18.2796 341.189 22.1896C339.546 26.0429 338.724 31.2562 338.724 37.8296V76.5046C338.724 83.0779 339.574 88.2912 341.274 92.1446C342.974 95.9979 345.751 98.7746 349.604 100.475C353.458 102.175 358.671 103.025 365.244 103.025H385.644C393.521 103.025 399.188 101.693 402.644 99.0296C406.101 96.3096 408.028 91.4363 408.424 84.4096C408.708 81.4063 410.266 79.9046 413.099 79.9046C414.573 79.9046 415.678 80.3296 416.414 81.1796C417.208 81.9729 417.519 83.1062 417.349 84.5796C416.839 94.1563 414.034 101.126 408.934 105.49C403.834 109.796 396.071 111.95 385.644 111.95H365.244ZM449.656 111.95C446.653 111.95 445.151 110.448 445.151 107.445V6.88958C445.151 3.88625 446.653 2.38458 449.656 2.38458C452.603 2.38458 454.076 3.88625 454.076 6.88958V55.7646L504.566 3.99958C506.606 1.90291 508.674 1.87458 510.771 3.91458C512.981 5.95458 513.038 8.07958 510.941 10.2896L472.861 49.3046L517.656 104.895C519.526 107.218 519.328 109.315 517.061 111.185C514.738 113.055 512.669 112.856 510.856 110.59L466.656 55.7646L454.076 68.5996V107.445C454.076 110.448 452.603 111.95 449.656 111.95ZM585.955 111.95C582.951 111.95 581.45 110.448 581.45 107.445V6.88958C581.45 3.88625 582.951 2.38458 585.955 2.38458H626.925C641.035 2.38458 651.291 5.61458 657.695 12.0746C664.155 18.5346 667.385 28.8196 667.385 42.9296V71.4046C667.385 85.5146 664.155 95.7996 657.695 102.26C651.291 108.72 641.035 111.95 626.925 111.95H585.955ZM590.375 103.025H626.925C634.631 103.025 640.78 102.005 645.37 99.9646C650.016 97.9246 653.36 94.6096 655.4 90.0196C657.44 85.3729 658.46 79.1679 658.46 71.4046V42.9296C658.46 35.2229 657.44 29.0746 655.4 24.4846C653.36 19.8379 650.016 16.4946 645.37 14.4546C640.78 12.3579 634.631 11.3096 626.925 11.3096H590.375V103.025ZM729.981 111.95C717.684 111.95 708.702 109.116 703.036 103.45C697.369 97.7829 694.536 88.8013 694.536 76.5046V37.7446C694.536 25.3346 697.369 16.3246 703.036 10.7146C708.702 5.04791 717.627 2.27125 729.811 2.38458H750.381C762.677 2.38458 771.631 5.21792 777.241 10.8846C782.907 16.5512 785.741 25.5329 785.741 37.8296V76.5046C785.741 88.8013 782.907 97.7829 777.241 103.45C771.631 109.116 762.677 111.95 750.381 111.95H729.981ZM729.981 103.025H750.381C756.897 103.025 762.082 102.175 765.936 100.475C769.789 98.7746 772.566 95.9979 774.266 92.1446C775.966 88.2912 776.816 83.0779 776.816 76.5046V37.8296C776.816 31.3129 775.966 26.1279 774.266 22.2746C772.566 18.4212 769.789 15.6446 765.936 13.9446C762.082 12.1879 756.897 11.3096 750.381 11.3096H729.811C723.294 11.2529 718.109 12.0746 714.256 13.7746C710.459 15.4179 707.711 18.1946 706.011 22.1046C704.311 25.9579 703.461 31.1712 703.461 37.7446V76.5046C703.461 83.0779 704.311 88.2912 706.011 92.1446C707.711 95.9979 710.487 98.7746 714.341 100.475C718.194 102.175 723.407 103.025 729.981 103.025ZM835.339 111.95C833.186 111.95 831.741 110.788 831.004 108.465L798.449 8.33458C797.996 7.03124 798.166 5.72791 798.959 4.42458C799.753 3.06458 800.999 2.38458 802.699 2.38458C803.663 2.38458 804.513 2.66792 805.249 3.23458C806.043 3.74458 806.581 4.53791 806.864 5.61458L837.124 98.6046H834.659L863.304 5.86958C863.701 4.62291 864.381 3.71624 865.344 3.14958C866.364 2.58291 867.413 2.29958 868.489 2.29958C869.623 2.29958 870.699 2.58291 871.719 3.14958C872.739 3.71624 873.391 4.62291 873.674 5.86958L902.319 98.6046H899.854L930.114 5.61458C930.511 4.53791 931.049 3.74458 931.729 3.23458C932.466 2.66792 933.316 2.38458 934.279 2.38458C936.206 2.38458 937.509 3.03625 938.189 4.33958C938.926 5.64292 939.068 6.97458 938.614 8.33458L905.974 108.465C905.238 110.788 903.679 111.95 901.299 111.95H900.959C898.523 111.95 896.964 110.788 896.284 108.465L867.129 14.7946H869.594L840.439 108.465C840.043 109.881 839.419 110.816 838.569 111.27C837.719 111.723 836.643 111.95 835.339 111.95ZM961.648 111.95C958.645 111.95 957.143 110.448 957.143 107.445V6.88958C957.143 3.88625 958.645 2.38458 961.648 2.38458C963.235 2.38458 964.765 3.26292 966.238 5.01958L1038.23 97.4996H1036.19V6.88958C1036.19 3.88625 1037.69 2.38458 1040.7 2.38458C1043.64 2.38458 1045.12 3.88625 1045.12 6.88958V107.445C1045.12 110.448 1043.64 111.95 1040.7 111.95C1039.05 111.95 1037.52 111.071 1036.11 109.315L964.028 16.8346H966.068V107.445C966.068 110.448 964.595 111.95 961.648 111.95Z" fill="#9CC437" fill-opacity="0.12"/>
</svg>
